<svg id="Layer_1" data-name="Layer 1" xmlns="http://www.w3.org/2000/svg" xmlns:xlink="http://www.w3.org/1999/xlink" viewBox="0 0 500 500"><defs><style>.cls-1{fill:url(#New_Gradient_Swatch);}.cls-2{font-size:44.14px;font-family:Poppins-Bold, Poppins;font-weight:700;}.cls-3{font-size:77.24px;}.cls-4{fill:url(#New_Gradient_Swatch-2);}</style><linearGradient id="New_Gradient_Swatch" x1="45.1" y1="182.05" x2="454.9" y2="182.05" gradientUnits="userSpaceOnUse"><stop offset="0" stop-color="#2a3592"/><stop offset="0.11" stop-color="#313c97"/><stop offset="0.28" stop-color="#34409a"/><stop offset="0.67" stop-color="#5f4ea0"/><stop offset="0.89" stop-color="#7355a4"/><stop offset="1" stop-color="#6e297c"/></linearGradient><linearGradient id="New_Gradient_Swatch-2" x1="169.48" y1="355.57" x2="330.06" y2="355.57" xlink:href="#New_Gradient_Swatch"/></defs><path class="cls-1" d="M446.36,96.68a8.54,8.54,0,0,1,8.54,8.54v8.72c0,13.54-15.82,16.89-27.6,16.89L408.76,96.68Zm-24.61,59.86c10.91,20.25,16.16,38.46,16.16,62.6,0,23.39-6.78,43.25-17.16,68v31.54a17.08,17.08,0,0,1-17.08,17.07H378.06A17.08,17.08,0,0,1,361,318.65V301.57H139v17.08a17.08,17.08,0,0,1-17.08,17.07H96.33a17.08,17.08,0,0,1-17.08-17.07V287.11c-10.38-24.72-17.16-44.58-17.16-68,0-24.15,5.25-42.35,16.16-62.6,14.15-26.24,31.6-59,50-89.67,14.13-23.6,21.54-29.15,38.89-32.26C193.33,29.92,217,28.38,250,28.38s56.67,1.54,82.83,6.23c17.35,3.11,24.76,8.66,38.89,32.26C390.15,97.58,407.6,130.3,421.75,156.54Zm-274.2,51.12a25.61,25.61,0,1,0-25.61,25.62A25.62,25.62,0,0,0,147.55,207.66ZM318.3,224.74a8.55,8.55,0,0,0-8.54-8.54H190.24a8.54,8.54,0,0,0,0,17.08H309.76A8.55,8.55,0,0,0,318.3,224.74Zm50.21-94.37s-12.63-31.18-27.84-53.65a22.83,22.83,0,0,0-14.84-9.66C300,62.41,277.42,60.93,250,60.93s-50,1.48-75.83,6.13a22.68,22.68,0,0,0-14.84,9.66c-15.21,22.45-27.84,53.65-27.84,53.65,28,5.34,73.57,8.48,118.51,8.48S340.51,135.71,368.51,130.37Zm35.16,77.29a25.61,25.61,0,1,0-25.61,25.62A25.62,25.62,0,0,0,403.67,207.66ZM91.24,96.68H53.64a8.54,8.54,0,0,0-8.54,8.54v8.72c0,13.54,15.82,16.89,27.6,16.89Z"/><text class="cls-2" transform="translate(173.09 339.6)">RENT A<tspan class="cls-3"><tspan x="-6.16" y="62.53">CAR</tspan></tspan></text><path class="cls-4" d="M188.5,308.61c7.59,0,11.39,4.38,11.39,9.76a9,9,0,0,1-6.89,9l7.15,12.27h-8.52l-6.44-11.69h-1.81V339.6h-7.55v-31Zm-.44,6.27h-4.68v7.68h4.68c2.82,0,4.15-1.45,4.15-3.88S190.88,314.88,188.06,314.88Z"/><path class="cls-4" d="M223.59,314.66H212.15v6.27h10.11v5.83H212.15v6.8h11.44v6h-19v-31h19Z"/><path class="cls-4" d="M256.21,308.61v31h-7.55L236,320.49V339.6h-7.55v-31H236l12.63,19.21V308.61Z"/><path class="cls-4" d="M260,308.61h24v6.05h-8.21V339.6h-7.55V314.66H260Z"/><path class="cls-4" d="M316.41,334.13H304.84L303,339.6h-7.91l11.22-31H315l11.21,31h-8ZM310.62,317l-3.79,11.34h7.63Z"/><path class="cls-4" d="M196.74,347.29c12.9,0,22.63,7.26,25.72,19H207.94a12,12,0,0,0-11.35-7c-8.11,0-13.67,6-13.67,15.6s5.56,15.61,13.67,15.61a11.94,11.94,0,0,0,11.35-7h14.52c-3.09,11.74-12.82,18.93-25.72,18.93-16,0-27.26-11.36-27.26-27.58S180.75,347.29,196.74,347.29Z"/><path class="cls-4" d="M264.33,392.55H244.09l-3.24,9.58H227l19.62-54.22h15.29l19.62,54.22h-14Zm-10.12-30-6.64,19.85h13.36Z"/><path class="cls-4" d="M309.67,347.91c13.28,0,19.93,7.65,19.93,17.07,0,6.8-3.71,13.21-12.05,15.68l12.51,21.47H315.15l-11.27-20.47h-3.17v20.47H287.5V347.91Zm-.77,11h-8.19v13.44h8.19c4.94,0,7.26-2.55,7.26-6.8C316.16,361.5,313.84,358.88,308.9,358.88Z"/></svg>